#!OML:ASF I:\Actors\actors\Patient Classification 1\Patient 1\Session 1\Subject1.ASF
:FULLY-SPECIFIED
:DEGREES
1135
root -1.00908 17.6263 7.42662 9.28061 -2.1349 -7.55992
lowerback 7.31814 4.3286 9.58027
upperback -10.6127 7.56268 1.35383
thorax -14.9956 2.58129 -5.23611
lowerneck -11.238 -13.3719 -7.28406
upperneck 10.2488 -18.1839 9.08399
head 6.44016 -8.50477 2.19354
rclavicle -6.16232e-015 2.66371e-014
rhumerus 56.6094 -12.2972 -70.1586
rradius 30.7881
rwrist 47.0867
rhand -28.9196 -55.6455
rfingers 7.12502
rthumb -2.2741 -445.613
lclavicle -6.16232e-015 2.66371e-014
lhumerus -32.5483 28.6349 43.436
lradius 113.489
lwrist 31.2388
lhand -34.9053 -9.02562
lfingers 7.12502
lthumb -8.05337 20.8009
rfemur -1.8486 24.2421 26.9359
rtibia -0.909757
rfoot -11.6399 -20.5708
rtoes 7.88414
lfemur 0.426826 -32.8646 -9.09929
ltibia -0.609876
lfoot -12.8325 41.4474
ltoes -3.07196
1136
root -1.01757 17.6295 7.41018 9.46967 -3.38298 -7.32001
lowerback 7.45689 4.53708 9.54126
upperback -10.6211 7.83546 1.1907
thorax -15.0303 2.69651 -5.45574
lowerneck -11.0959 -13.2388 -7.28222
upperneck 10.1649 -18.0211 9.20656
head 6.38914 -8.42581 2.26232
rclavicle -2.26118e-015 2.28602e-014
rhumerus 54.8538 -4.56719 -63.4967
rradius 33.6119
rwrist 44.3333
rhand -28.7508 -55.9909
rfingers 7.12502
rthumb -2.11104 -445.96
lclavicle -2.26118e-015 2.28602e-014
lhumerus -31.6448 28.2781 43.9245
lradius 113.613
lwrist 31.222
lhand -34.6581 -9.46307
lfingers 7.12502
lthumb -7.81482 20.3725
rfemur -2.47894 23.9571 26.3708
rtibia -0.532512
rfoot -11.2953 -18.9186
rtoes 8.0994
lfemur 0.969386 -33.3248 -9.80004
ltibia -0.914738
lfoot -14.0442 43.0771
ltoes -1.28514
1137
root -1.02589 17.6318 7.39899 9.70193 -4.54333 -7.01634
lowerback 7.49864 4.73795 9.32124
upperback -10.682 8.06089 1.00586
thorax -15.0899 2.80632 -5.58738
lowerneck -11.1524 -13.154 -7.11035
upperneck 10.3858 -17.9287 9.05322
head 6.43078 -8.37865 2.19558
rclavicle 1.60022e-014 -7.25564e-015
rhumerus 54.4597 2.86363 -56.7907
rradius 36.1751
rwrist 43.0898
rhand -28.532 -57.0482
rfingers 7.12502
rthumb -1.89971 -447.019
lclavicle 1.60022e-014 -7.25564e-015
lhumerus -30.8589 27.8946 44.3784
lradius 113.826
lwrist 31.2642
lhand -34.3906 -9.69887
lfingers 7.12502
lthumb -7.55662 20.1461
rfemur -3.14102 23.4931 25.6969
rtibia -0.212842
rfoot -10.9193 -17.212
rtoes 8.08494
lfemur 1.45375 -33.9046 -10.5526
ltibia -1.24637
lfoot -15.4292 44.6829
ltoes 0.547127
1138
root -1.03401 17.6319 7.39268 9.95283 -5.5577 -6.84613
lowerback 7.48864 4.91271 9.13602
upperback -10.7369 8.25433 0.862937
thorax -15.1172 2.90352 -5.67974
lowerneck -11.3685 -13.0944 -6.79003
upperneck 10.6163 -17.8741 8.82133
head 6.48428 -8.3436 2.07023
rclavicle -1.90585e-014 -1.40143e-014
rhumerus 55.3216 9.49115 -50.0446
rradius 38.5309
rwrist 41.8817
rhand -28.5564 -56.7561
rfingers 7.12502
rthumb -1.92332 -446.727
lclavicle -1.90585e-014 -1.40143e-014
lhumerus -30.274 27.5251 44.7038
lradius 114.131
lwrist 31.2029
lhand -34.1692 -9.78042
lfingers 7.12502
lthumb -7.34284 20.0722
rfemur -3.76022 23.0904 25.1986
rtibia 0.068806
rfoot -10.5867 -15.6465
rtoes 8.06997
lfemur 1.9051 -34.7278 -11.1315
ltibia -1.57433
lfoot -16.7878 46.3214
ltoes 2.01004
1139
root -1.04269 17.6291 7.38997 10.1901 -6.41278 -6.79855
lowerback 7.4655 5.04141 8.98761
upperback -10.785 8.39905 0.799491
thorax -15.1454 2.98005 -5.69385
lowerneck -11.3763 -12.987 -6.64004
upperneck 10.5709 -17.7525 8.85876
head 6.45236 -8.27821 2.07757
rclavicle -1.74682e-014 8.74653e-015
rhumerus 57.0484 15.0094 -43.4929
rradius 40.8338
rwrist 41.9526
rhand -27.5825 -58.2468
rfingers 7.12502
rthumb -0.982728 -448.224
lclavicle -1.74682e-014 8.74653e-015
lhumerus -30.009 27.2457 44.8306
lradius 114.426
lwrist 30.9607
lhand -33.9922 -9.92076
lfingers 7.12502
lthumb -7.17203 19.9377
rfemur -4.27427 22.8205 24.9039
rtibia 0.286793
rfoot -10.3175 -14.3736
rtoes 7.93914
lfemur 2.26755 -35.4388 -11.488
ltibia -1.82343
lfoot -18.1772 47.6382
ltoes 3.45517
1140
root -1.0501 17.6248 7.38909 10.363 -7.01133 -6.84275
lowerback 7.4472 5.09607 8.91096
upperback -10.8164 8.46167 0.802131
thorax -15.1723 3.01535 -5.65956
lowerneck -11.1326 -12.8433 -6.61967
upperneck 10.2953 -17.5696 9.02597
head 6.32484 -8.19464 2.171
rclavicle -5.96354e-015 -2.33572e-014
rhumerus 58.9311 18.9009 -38.254
rradius 42.5984
rwrist 42.9368
rhand -28.686 -56.4078
rfingers 7.12502
rthumb -2.04843 -446.378
lclavicle -5.96354e-015 -2.33572e-014
lhumerus -29.9693 27.0941 44.7697
lradius 114.631
lwrist 30.7263
lhand -33.904 -10.0125
lfingers 7.12502
lthumb -7.08691 19.8488
rfemur -4.61556 22.5254 24.7894
rtibia 0.407118
rfoot -10.1494 -13.3895
rtoes 7.76236
lfemur 2.57595 -36.0225 -11.6715
ltibia -2.01447
lfoot -19.4495 48.5604
ltoes 4.87905
1141
root -1.05577 17.6198 7.38816 10.47 -7.31818 -7.04147
lowerback 7.47132 5.07987 8.99875
upperback -10.8382 8.46371 0.854768
thorax -15.2138 3.00599 -5.65289
lowerneck -10.8769 -12.7136 -6.57286
upperneck 10.0428 -17.4004 9.11588
head 6.19385 -8.12214 2.23567
rclavicle -5.7896e-015 8.22969e-014
rhumerus 60.255 21.3165 -34.9078
rradius 43.6853
rwrist 44.176
rhand -29.7081 -56.472
rfingers 7.12502
rthumb -3.03555 -446.43
lclavicle -5.7896e-015 8.22969e-014
lhumerus -30.0769 27.0808 44.5298
lradius 114.715
lwrist 30.6273
lhand -33.8272 -9.98311
lfingers 7.12502
lthumb -7.01273 19.8807
rfemur -4.78256 22.2377 24.9423
rtibia 0.448891
rfoot -10.0369 -12.7221
rtoes 7.62542
lfemur 2.85273 -36.5419 -11.6195
ltibia -2.18596
lfoot -20.4272 49.1795
ltoes 5.92558
1142
root -1.06088 17.6148 7.38823 10.5574 -7.40045 -7.23177
lowerback 7.47788 5.02724 9.04997
upperback -10.8658 8.41115 0.918192
thorax -15.2661 2.97545 -5.60424
lowerneck -10.8281 -12.6459 -6.64027
upperneck 10.0962 -17.317 9.18951
head 6.20921 -8.07974 2.27838
rclavicle 5.14355e-015 -1.02374e-014
rhumerus 60.5089 22.3444 -33.7735
rradius 43.8432
rwrist 45.914
rhand -30.3401 -56.7572
rfingers 7.12502
rthumb -3.64592 -446.706
lclavicle 5.14355e-015 -1.02374e-014
lhumerus -30.3418 27.2049 44.1747
lradius 114.755
lwrist 30.6763
lhand -33.778 -9.94274
lfingers 7.12502
lthumb -6.96523 19.9227
rfemur -4.84935 22.1257 25.1481
rtibia 0.416679
rfoot -9.94514 -12.495
rtoes 7.64939
lfemur 2.97408 -36.9112 -11.4676
ltibia -2.27803
lfoot -21.0364 49.514
ltoes 6.5239
1143
root -1.06489 17.6124 7.39043 10.6221 -7.29304 -7.24503
lowerback 7.43127 4.97037 8.87763
upperback -10.8814 8.30447 0.92264
thorax -15.2924 2.94387 -5.4854
lowerneck -10.8697 -12.6528 -6.75492
upperneck 10.2286 -17.3448 9.34347
head 6.28525 -8.08112 2.32994
rclavicle -5.1771e-014 -8.94531e-015
rhumerus 59.6647 22.167 -34.1996
rradius 43.4153
rwrist 47.1383
rhand -30.779 -57.2719
rfingers 7.12502
rthumb -4.06969 -447.213
lclavicle -5.1771e-014 -8.94531e-015
lhumerus -30.6991 27.3563 43.7102
lradius 114.774
lwrist 30.7303
lhand -33.732 -9.99797
lfingers 7.12502
lthumb -6.9209 19.8689
rfemur -4.86652 22.0136 25.1691
rtibia 0.331917
rfoot -9.86898 -12.5156
rtoes 7.64317
lfemur 2.92459 -37.1486 -11.4213
ltibia -2.28798
lfoot -20.9261 49.6589
ltoes 6.32572
1144
root -1.06774 17.6142 7.39405 10.6619 -7.03126 -7.14732
lowerback 7.37091 4.90906 8.52196
upperback -10.8734 8.15868 0.906572
thorax -15.3025 2.91575 -5.28144
lowerneck -10.9171 -12.7003 -6.77098
upperneck 10.2326 -17.4231 9.45674
head 6.31317 -8.1094 2.35297
rclavicle 1.3654e-014 7.25564e-015
rhumerus 57.9632 20.7903 -36.1399
rradius 42.3381
rwrist 47.9745
rhand -32.2922 -57.7631
rfingers 7.12502
rthumb -5.53086 -447.671
lclavicle 1.3654e-014 7.25564e-015
lhumerus -31.2067 27.536 43.0737
lradius 114.733
lwrist 30.6352
lhand -33.7271 -10.1927
lfingers 7.12502
lthumb -6.91617 19.6743
rfemur -4.86372 21.8056 25.0713
rtibia 0.249728
rfoot -9.83087 -12.6513
rtoes 7.35107
lfemur 2.7588 -37.2976 -11.4256
ltibia -2.25305
lfoot -20.3719 49.6179
ltoes 5.7528
1145
root -1.07071 17.6188 7.39862 10.7086 -6.66177 -7.12283
lowerback 7.15856 4.86586 8.28599
upperback -10.7242 8.02548 0.896052
thorax -15.0224 2.90426 -5.10963
lowerneck -11.2881 -12.8175 -6.69217
upperneck 10.2296 -17.5688 9.41866
head 6.37507 -8.16517 2.28954
rclavicle 4.32232e-014 2.17172e-014
rhumerus 55.8058 18.2897 -37.7276
rradius 41.689
rwrist 47.7419
rhand -30.6219 -58.6382
rfingers 7.12502
rthumb -3.91801 -448.582
lclavicle 4.32232e-014 2.17172e-014
lhumerus -31.6707 27.9393 42.4203
lradius 114.652
lwrist 30.4552
lhand -33.794 -10.3087
lfingers 7.12502
lthumb -6.98071 19.5562
rfemur -4.83126 21.7547 25.0813
rtibia 0.165687
rfoot -9.867 -13.082
rtoes 7.10788
lfemur 2.50324 -37.3945 -11.2614
ltibia -2.20346
lfoot -19.9215 49.425
ltoes 5.48988
